<svg width="32" height="32" viewBox="0 0 32 32" fill="none" xmlns="http://www.w3.org/2000/svg">
  <rect width="32" height="32" rx="6" fill="#7C2D12"/>
  <path d="M8 24V8H16.5C17.9583 8 19.1667 8.41667 20.125 9.25C21.0833 10.0833 21.5625 11.1667 21.5625 12.5C21.5625 13.8333 21.0833 14.9167 20.125 15.75C19.1667 16.5833 17.9583 17 16.5 17H11.5V24H8ZM11.5 14H16.25C16.9167 14 17.4583 13.7917 17.875 13.375C18.2917 12.9583 18.5 12.4167 18.5 11.75C18.5 11.0833 18.2917 10.5417 17.875 10.125C17.4583 9.70833 16.9167 9.5 16.25 9.5H11.5V14Z" fill="white"/>
</svg>